<?xml version="1.0" encoding="UTF-8" standalone="no"?>
<!DOCTYPE svg PUBLIC "-//W3C//DTD SVG 1.1//EN" "http://www.w3.org/Graphics/SVG/1.1/DTD/svg11.dtd">
<svg version="1.1" xmlns="http://www.w3.org/2000/svg" xmlns:xlink="http://www.w3.org/1999/xlink" preserveAspectRatio="xMidYMid meet" viewBox="0 0 640 640" width="640" height="640"><defs><path d="M575.48 418.86L455.34 195.47" id="b4wPW52XyZ"></path><path d="M322.16 332.41L462.45 195.47" id="a5zn7ZD2i"></path><path d="M320 332.41L179.71 195.47" id="c21HqlvU4C"></path><path d="M59.57 418.86L179.71 195.47" id="d5Si7hcWS0"></path><path d="M365.38 332.41C365.38 356.27 346.01 375.63 322.16 375.63C298.31 375.63 278.94 356.27 278.94 332.41C278.94 308.56 298.31 289.19 322.16 289.19C346.01 289.19 365.38 308.56 365.38 332.41Z" id="a1CjfVTiNI"></path><path d="M498.56 195.47C498.56 219.32 479.19 238.69 455.34 238.69C431.49 238.69 412.12 219.32 412.12 195.47C412.12 171.61 431.49 152.25 455.34 152.25C479.19 152.25 498.56 171.61 498.56 195.47Z" id="bFpxcBoxm"></path><path d="M221.14 195.47C221.14 219.32 201.78 238.69 177.92 238.69C154.07 238.69 134.7 219.32 134.7 195.47C134.7 171.61 154.07 152.25 177.92 152.25C201.78 152.25 221.14 171.61 221.14 195.47Z" id="a8Ee9TZFx"></path><path d="M105.08 418.86C105.08 442.71 85.72 462.08 61.86 462.08C38.01 462.08 18.64 442.71 18.64 418.86C18.64 395 38.01 375.63 61.86 375.63C85.72 375.63 105.08 395 105.08 418.86Z" id="b1FW0EJJDW"></path><path d="M621.48 418.86C621.48 442.71 602.12 462.08 578.26 462.08C554.41 462.08 535.04 442.71 535.04 418.86C535.04 395 554.41 375.63 578.26 375.63C602.12 375.63 621.48 395 621.48 418.86Z" id="agYbysFak"></path></defs><g><g><g><g><use xlink:href="#b4wPW52XyZ" opacity="1" fill-opacity="0" stroke="#8c94a7" stroke-width="12" stroke-opacity="1"></use></g></g><g><g><use xlink:href="#a5zn7ZD2i" opacity="1" fill-opacity="0" stroke="#8c94a7" stroke-width="12" stroke-opacity="1"></use></g></g><g><g><use xlink:href="#c21HqlvU4C" opacity="1" fill-opacity="0" stroke="#8c94a7" stroke-width="12" stroke-opacity="1"></use></g></g><g><g><use xlink:href="#d5Si7hcWS0" opacity="1" fill-opacity="0" stroke="#8c94a7" stroke-width="12" stroke-opacity="1"></use></g></g><g><use xlink:href="#a1CjfVTiNI" opacity="1" fill="#55f855" fill-opacity="1"></use><g><use xlink:href="#a1CjfVTiNI" opacity="1" fill-opacity="0" stroke="#00f600" stroke-width="3" stroke-opacity="1"></use></g></g><g><use xlink:href="#bFpxcBoxm" opacity="1" fill="#2e6af3" fill-opacity="1"></use><g><use xlink:href="#bFpxcBoxm" opacity="1" fill-opacity="0" stroke="#034bf1" stroke-width="3" stroke-opacity="1"></use></g></g><g><use xlink:href="#a8Ee9TZFx" opacity="1" fill="#2e6af3" fill-opacity="1"></use><g><use xlink:href="#a8Ee9TZFx" opacity="1" fill-opacity="0" stroke="#034bf1" stroke-width="3" stroke-opacity="1"></use></g></g><g><use xlink:href="#b1FW0EJJDW" opacity="1" fill="#ff8119" fill-opacity="1"></use><g><use xlink:href="#b1FW0EJJDW" opacity="1" fill-opacity="0" stroke="#ff7400" stroke-width="3" stroke-opacity="1"></use></g></g><g><use xlink:href="#agYbysFak" opacity="1" fill="#ff8119" fill-opacity="1"></use><g><use xlink:href="#agYbysFak" opacity="1" fill-opacity="0" stroke="#ff7400" stroke-width="3" stroke-opacity="1"></use></g></g></g></g></svg>